<?xml version="1.0" standalone="no"?>
<!DOCTYPE svg PUBLIC "-//W3C//DTD SVG 20010904//EN"
 "http://www.w3.org/TR/2001/REC-SVG-20010904/DTD/svg10.dtd">
<svg version="1.0" xmlns="http://www.w3.org/2000/svg"
 width="1000.000000pt" height="1000.000000pt" viewBox="0 0 1000.000000 1000.000000"
 preserveAspectRatio="xMidYMid meet">
<metadata>
Created by potrace 1.14, written by Peter Selinger 2001-2017
</metadata>
<g transform="translate(0.000000,1000.000000) scale(0.100000,-0.100000)"
fill="#000000" stroke="none">
<path d="M1339 7443 c0 -720 0 -1525 0 -1791 l-1 -484 -88 -56 c-82 -53 -187
-119 -314 -199 -28 -18 -55 -36 -61 -40 -5 -5 -32 -24 -60 -43 -27 -19 -51
-37 -53 -42 -2 -4 -8 -8 -13 -8 -11 0 -260 -177 -309 -221 -19 -17 -56 -49
-82 -71 -39 -34 -61 -68 -123 -194 -69 -140 -74 -155 -63 -181 6 -15 12 -30
13 -33 1 -3 7 -18 13 -33 7 -16 12 -30 12 -32 0 -2 5 -16 12 -32 6 -15 12 -30
13 -33 1 -3 9 -22 18 -44 9 -21 17 -44 17 -52 0 -7 5 -16 10 -19 6 -3 10 -13
10 -21 0 -14 130 -216 157 -242 7 -7 13 -16 13 -20 0 -4 18 -27 40 -51 22 -25
40 -47 40 -50 0 -10 63 -74 115 -116 27 -22 53 -44 59 -50 6 -5 27 -22 46 -36
19 -15 49 -39 65 -54 55 -49 99 -73 200 -110 55 -20 109 -40 120 -45 57 -24
85 -31 135 -34 l55 -3 2 -794 c1 -437 2 -811 2 -831 l1 -37 281 -1 c211 0 283
-3 292 -13 21 -22 71 -82 102 -121 17 -22 46 -58 65 -81 19 -23 49 -59 65 -81
17 -21 40 -49 53 -62 12 -13 22 -25 22 -27 0 -3 39 -53 87 -113 48 -59 91
-111 96 -117 4 -5 17 -21 28 -35 11 -14 33 -40 47 -59 46 -59 117 -145 127
-157 6 -6 21 -26 35 -44 67 -89 112 -140 126 -140 7 0 14 -3 14 -8 0 -4 17
-15 38 -25 20 -10 60 -31 87 -48 47 -30 117 -56 175 -65 14 -3 33 -7 43 -10
12 -4 40 9 75 32 31 21 65 43 74 49 51 30 328 221 328 227 0 3 21 42 46 85 26
43 47 84 48 91 4 27 -43 169 -75 228 -17 32 -42 77 -53 99 -12 22 -24 41 -28
43 -5 2 -8 8 -8 13 0 4 -16 24 -35 43 -19 20 -35 38 -35 41 0 3 716 5 1591 5
l1590 0 -42 -45 c-42 -44 -84 -105 -73 -105 3 0 -3 -12 -14 -27 -27 -39 -80
-146 -86 -174 -3 -13 -11 -47 -19 -75 -12 -43 -12 -53 0 -70 8 -10 26 -43 41
-73 15 -30 41 -68 58 -85 27 -27 282 -205 309 -215 5 -2 12 -7 15 -11 3 -3 31
-23 62 -44 59 -38 57 -38 131 -20 4 1 8 2 10 3 1 2 13 4 27 7 46 8 90 25 90
35 0 6 4 8 8 5 5 -3 24 5 43 18 19 12 57 35 86 51 53 28 80 54 143 135 19 25
38 46 42 48 5 2 8 10 8 17 0 7 4 15 8 17 4 1 115 136 245 298 131 162 249 309
262 325 14 17 41 50 61 75 20 25 55 67 78 94 22 27 43 52 46 57 4 5 132 10
285 11 l280 3 2 1020 c1 561 2 1045 2 1076 l1 56 73 23 c39 14 75 28 78 33 3
5 9 8 13 7 4 -1 21 3 39 10 110 41 156 64 181 90 15 17 32 30 37 30 5 0 9 7 9
15 0 8 3 15 8 15 7 0 41 29 157 135 175 161 195 182 211 220 16 40 21 52 68
158 14 32 26 62 26 66 0 5 6 22 14 38 17 32 50 105 51 113 1 3 9 23 20 45 10
22 20 49 22 60 2 11 -44 116 -107 242 -117 235 -115 233 -234 318 -16 11 -33
25 -40 30 -38 34 -156 125 -161 125 -4 0 -23 16 -43 35 -20 19 -40 35 -44 35
-4 0 -13 6 -20 14 -8 8 -41 29 -74 47 -32 18 -67 39 -77 47 -9 8 -17 11 -17 7
0 -4 -8 -1 -17 7 -10 8 -53 35 -95 58 -43 24 -78 49 -79 54 0 6 0 723 -1 1593
l0 1583 -3704 0 -3704 0 -1 -1307z m2639 -6103 c37 0 20 -24 -19 -26 -157 -10
-233 -14 -284 -18 -311 -25 -325 -25 -325 -10 0 8 -4 14 -9 14 -5 0 -11 9 -14
19 -5 19 2 20 181 21 102 0 186 1 188 3 2 2 108 1 282 -3z m2724 0 l67 0 -14
-32 c-15 -37 -12 -36 -179 -24 -44 4 -113 8 -155 11 -42 2 -116 7 -166 11 -49
4 -107 8 -127 8 -44 0 -52 23 -10 28 15 2 137 2 272 1 135 -1 275 -2 312 -3z"/>
</g>
</svg>
